<svg xmlns="http://www.w3.org/2000/svg" viewBox="0 0 512 512" role="img" aria-labelledby="title desc">
  <title id="title">Chuko Cleaning Services logo</title>
  <desc id="desc">Circular blue and black Chuko Cleaning Services logo with roof mark.</desc>
  <defs>
    <style>
      .blue{fill:#1168ad}.stroke{fill:none;stroke:#1168ad;stroke-width:13;stroke-linecap:round}.dark{fill:#020617}.soft{fill:#0b1220}.green{fill:#94a044}
    </style>
  </defs>
  <circle cx="256" cy="256" r="238" fill="#fff"/>
  <path class="stroke" d="M124 156c63-79 179-95 263-34 28 20 51 47 66 79"/>
  <path class="stroke" d="M118 360c63 76 178 90 260 30 25-18 46-41 61-68"/>
  <path class="dark" d="M78 234h54c17 0 31 14 31 31v51H95c-20 0-36-16-36-36v-27c0-10 9-19 19-19z"/>
  <path class="soft" d="M117 193c0-25 20-45 45-45s45 20 45 45v102h-42V193c0-2-1-3-3-3s-3 1-3 3v102h-42V193z"/>
  <path class="dark" d="M142 246h40c19 0 34 15 34 34v36h-48c-21 0-38-17-38-38v-20c0-7 5-12 12-12z"/>
  <circle class="dark" cx="164" cy="318" r="22"/>
  <circle fill="#132033" cx="164" cy="318" r="6"/>
  <rect class="dark" x="118" y="279" width="17" height="31"/>
  <rect class="dark" x="119" y="265" width="31" height="16"/>
  <rect class="green" x="159" y="344" width="27" height="4" rx="2"/>
  <rect class="green" x="159" y="351" width="27" height="4" rx="2"/>
  <rect class="green" x="159" y="358" width="27" height="4" rx="2"/>
  <path class="blue" d="M226 238l57-50 56 50h-43l-29-32-25 30-16 2z"/>
  <path class="blue" d="M286 239l-11-28-28 28h39z"/>
  <text x="256" y="316" text-anchor="middle" font-family="Georgia, 'Times New Roman', serif" font-size="74" font-weight="700" class="dark">Chuko</text>
  <text x="262" y="371" text-anchor="middle" font-family="Georgia, 'Times New Roman', serif" font-size="42" font-weight="700"><tspan class="dark">Cleaning </tspan><tspan class="blue">Services</tspan></text>
</svg>
